<mxfile host="app.diagrams.net" agent="Mozilla/5.0 (Windows NT 10.0; Win64; x64) AppleWebKit/537.36 (KHTML, like Gecko) Chrome/127.0.0.0 Safari/537.36" version="24.7.7">
  <diagram name="Página-1" id="j-Vha_8yaSpztmf9tkuU">
    <mxGraphModel dx="1434" dy="772" grid="1" gridSize="10" guides="1" tooltips="1" connect="1" arrows="1" fold="1" page="1" pageScale="1" pageWidth="827" pageHeight="1169" math="0" shadow="0">
      <root>
        <mxCell id="0" />
        <mxCell id="1" parent="0" />
        <mxCell id="hhgiS7orkSpZcEBrVa9L-1" value="problema: Organizador de finanças&lt;div&gt;&lt;br&gt;&lt;/div&gt;&lt;div&gt;REQUISITOS:&lt;/div&gt;&lt;div&gt;- escolher tempo de visualização de gastos&lt;/div&gt;&lt;div style=&quot;text-align: left;&quot;&gt;-&amp;nbsp;&lt;/div&gt;" style="whiteSpace=wrap;html=1;aspect=fixed;" vertex="1" parent="1">
          <mxGeometry x="80" y="50" width="640" height="640" as="geometry" />
        </mxCell>
      </root>
    </mxGraphModel>
  </diagram>
</mxfile>
